<svg width="175" height="60" fill="none" xmlns="http://www.w3.org/2000/svg"><rect x="2.5" y="2.5" width="170" height="55" rx="7.5" fill="#6E0000" stroke="#D6D020" stroke-width="5"/><path d="M33.246 39v-.24h.024c.56 0 1.016-.16 1.368-.48.368-.336.552-.768.552-1.296V23.016c-.032-.544-.224-.976-.576-1.296-.336-.32-.784-.48-1.344-.48h-.024V21h7.128c1.296 0 2.416.168 3.36.504.96.336 1.704.808 2.232 1.416.528.592.792 1.296.792 2.112 0 .928-.4 1.728-1.2 2.4-.784.672-1.816 1.088-3.096 1.248 1.184.064 2.216.304 3.096.72.896.4 1.592.944 2.088 1.632.512.688.768 1.488.768 2.4 0 1.088-.32 2.056-.96 2.904-.624.832-1.512 1.488-2.664 1.968-1.152.464-2.512.696-4.08.696h-7.464zm5.64-10.488h1.488c.816 0 1.472-.32 1.968-.96.512-.656.768-1.528.768-2.616 0-1.104-.256-1.984-.768-2.64-.496-.656-1.152-.984-1.968-.984h-1.488v7.2zm1.824 10.176c1.184 0 2.12-.448 2.808-1.344.704-.896 1.056-2.104 1.056-3.624 0-1.456-.384-2.624-1.152-3.504-.752-.896-1.768-1.344-3.048-1.344h-1.488v8.112c0 1.136.608 1.704 1.824 1.704zm7.938.312v-.24h.024c.577 0 1.04-.176 1.393-.528.352-.352.528-.816.528-1.392v-7.872c0-.608-.129-1.08-.385-1.416-.24-.336-.76-.504-1.56-.504v-.24h2.448c.817 0 1.44-.088 1.873-.264.4-.176.68-.392.84-.648h.24V36.84c0 .576.175 1.04.528 1.392.352.352.816.528 1.392.528h.023V39H48.65zm3.648-14.616c-.575 0-1.056-.184-1.44-.552-.367-.384-.552-.864-.552-1.44s.184-1.048.552-1.416c.384-.384.864-.576 1.44-.576.56 0 1.025.192 1.392.576.384.384.576.856.576 1.416 0 .56-.192 1.032-.576 1.416-.367.384-.832.576-1.392.576zM55.607 39v-.24c.575 0 1.04-.168 1.392-.504.367-.352.552-.824.552-1.416V23.16c0-.576-.184-1.04-.552-1.392-.352-.352-.816-.528-1.392-.528V21h2.447c.817 0 1.44-.088 1.873-.264.4-.176.68-.392.84-.648h.24V36.84c0 .592.175 1.064.527 1.416.368.336.84.504 1.416.504V39h-7.343zm7.054 0v-.24c.576 0 1.04-.168 1.392-.504.368-.352.552-.824.552-1.416V23.16c0-.576-.184-1.04-.552-1.392-.352-.352-.816-.528-1.392-.528V21h2.448c.816 0 1.44-.088 1.872-.264.4-.176.68-.392.84-.648h.24V36.84c0 .592.176 1.064.528 1.416.368.336.84.504 1.416.504V39H62.66zm13.042.288c-1.104 0-2.088-.272-2.952-.816-.848-.544-1.512-1.296-1.992-2.256-.48-.976-.72-2.088-.72-3.336 0-1.28.264-2.4.792-3.36a5.687 5.687 0 012.16-2.232c.928-.544 1.976-.816 3.144-.816.976 0 1.84.192 2.592.576a4.504 4.504 0 011.824 1.632c.464.688.728 1.488.792 2.4l.024.36h-8.064v.12c0 1.696.376 3.056 1.128 4.08.752 1.008 1.76 1.512 3.024 1.512.768 0 1.496-.184 2.184-.552a4.782 4.782 0 001.704-1.536l.216.072a5.895 5.895 0 01-1.272 2.16 6.205 6.205 0 01-2.04 1.464 6.139 6.139 0 01-2.544.528zm-2.376-8.208h4.872c0-1.264-.208-2.288-.624-3.072-.4-.784-.968-1.176-1.704-1.176-.704 0-1.288.384-1.752 1.152-.464.768-.728 1.8-.792 3.096zm14.019 8.256c-.832 0-1.512-.264-2.04-.792s-.792-1.216-.792-2.064v-9.24h-2.04v-.312a5.635 5.635 0 002.952-1.056c.88-.624 1.6-1.464 2.16-2.52h.384v3.456h3.192l-.24.432h-2.952v8.712c0 1.28.432 1.92 1.296 1.92.288 0 .616-.088.984-.264a4.602 4.602 0 001.08-.696v.24a6.186 6.186 0 01-1.872 1.608c-.72.384-1.424.576-2.112.576zm7.594 0c-.832 0-1.512-.264-2.04-.792s-.793-1.216-.793-2.064v-9.24h-2.04v-.312a5.635 5.635 0 002.953-1.056c.88-.624 1.6-1.464 2.16-2.52h.383v3.456h3.192l-.24.432h-2.951v8.712c0 1.28.431 1.92 1.296 1.92.288 0 .616-.088.984-.264a4.602 4.602 0 001.08-.696v.24a6.186 6.186 0 01-1.873 1.608c-.72.384-1.424.576-2.111.576zm9.451-.048c-1.104 0-2.088-.272-2.952-.816-.848-.544-1.512-1.296-1.992-2.256-.48-.976-.72-2.088-.72-3.336 0-1.28.264-2.4.792-3.36a5.69 5.69 0 012.16-2.232c.928-.544 1.976-.816 3.144-.816.976 0 1.84.192 2.592.576a4.504 4.504 0 011.824 1.632c.464.688.728 1.488.792 2.4l.024.36h-8.064v.12c0 1.696.376 3.056 1.128 4.08.752 1.008 1.76 1.512 3.024 1.512.768 0 1.496-.184 2.184-.552a4.782 4.782 0 001.704-1.536l.216.072a5.895 5.895 0 01-1.272 2.16 6.205 6.205 0 01-2.04 1.464 6.139 6.139 0 01-2.544.528zm-2.376-8.208h4.872c0-1.264-.208-2.288-.624-3.072-.4-.784-.968-1.176-1.704-1.176-.704 0-1.288.384-1.752 1.152-.464.768-.728 1.8-.792 3.096zm8.345 7.92v-.24h.024c.576 0 1.04-.176 1.392-.528.352-.352.528-.816.528-1.392v-7.872c0-.608-.128-1.08-.384-1.416-.24-.336-.76-.504-1.56-.504v-.24h2.376c.848 0 1.488-.08 1.92-.24.432-.176.736-.4.912-.672h.12l.024 3.936c.208-.48.472-.984.792-1.512a4.682 4.682 0 011.248-1.32c.512-.368 1.12-.552 1.824-.552.24 0 .496.024.768.072.272.048.56.136.864.264l-.936 2.808c-.576-.32-1.08-.544-1.512-.672a3.815 3.815 0 00-1.104-.192c-.544 0-.952.168-1.224.504-.256.336-.48.736-.672 1.2v6.408c0 .576.176 1.04.528 1.392.352.352.816.528 1.392.528h.024V39h-7.344zm10.899 0v-.24h.024c.576 0 1.04-.176 1.392-.528.352-.352.528-.816.528-1.392v-7.872c0-.608-.128-1.08-.384-1.416-.24-.336-.76-.504-1.56-.504v-.24h2.448c.816 0 1.44-.088 1.872-.264.4-.176.68-.392.84-.648h.24V36.84c0 .576.176 1.04.528 1.392.352.352.816.528 1.392.528h.024V39h-7.344zm3.648-14.616c-.576 0-1.056-.184-1.44-.552-.368-.384-.552-.864-.552-1.44s.184-1.048.552-1.416c.384-.384.864-.576 1.44-.576.56 0 1.024.192 1.392.576.384.384.576.856.576 1.416 0 .56-.192 1.032-.576 1.416-.368.384-.832.576-1.392.576zm9.413 14.904c-1.104 0-2.088-.272-2.952-.816-.848-.544-1.512-1.296-1.992-2.256-.48-.976-.72-2.088-.72-3.336 0-1.28.264-2.4.792-3.36a5.687 5.687 0 012.16-2.232c.928-.544 1.976-.816 3.144-.816.976 0 1.84.192 2.592.576a4.504 4.504 0 011.824 1.632c.464.688.728 1.488.792 2.4l.024.36h-8.064v.12c0 1.696.376 3.056 1.128 4.08.752 1.008 1.76 1.512 3.024 1.512.768 0 1.496-.184 2.184-.552a4.782 4.782 0 001.704-1.536l.216.072a5.895 5.895 0 01-1.272 2.16 6.205 6.205 0 01-2.04 1.464 6.139 6.139 0 01-2.544.528zm-2.376-8.208h4.872c0-1.264-.208-2.288-.624-3.072-.4-.784-.968-1.176-1.704-1.176-.704 0-1.288.384-1.752 1.152-.464.768-.728 1.8-.792 3.096z" fill="#D6D020"/></svg>