<svg width="133" height="39" fill="none" xmlns="http://www.w3.org/2000/svg"><path d="M17.653 39c10.22-.439 35.666-1.157 47.884-8.402 12.293-7.289 18.987-7.424 19.869-7.592-.12-.844-1.1-2.278-4.074-1.266 2.344-5.669 13.222-3.206 18.368-1.265-3.717-3.797-14.809-8.119-29.446 4.96C90.051 7.467 96.412 7.922 99.7 12.073c3.073 0 1.715-2.936-1.358-3.898 4.574-3.442 8.957.388 10.577 2.733 1.358-.759 2.745-2.875-2.573-5.264 9.005-2.48 9.934 7.542 14.508 8.656-1.715-2.713-.714-4.303 0-4.758 12.722 5.264 0 17.513-5.002 9.414 2.43.76 5.002-3.442 0-3.442-9.506 2.531 1.429 13.565 10.291 4.96-.167 1.215.215 3.534 3.073 3.088-1.715-1.377-.143-2.834.858-3.391 3.597-3.897 6.79-12.978-9.22-18.12-20.011-6.429-35.162 3.593-42.31 11.641-7.146 8.048-15.651 14.73-31.303 20.095 6.918-3.361 11.411-7.88 12.793-9.719 2.311-.877 6.79-2.824 6.218-3.593-.572-.77.762-2.346 1.5-3.037-.785-.118-2.844.172-4.788 2.277 1.287-6.731 8.005-2.986 11.793-8.756-3.43 1.114-7.79 1.367-4.503 0 3.288-1.367 4.932-2.328 5.003-4.454.057-1.7 2.216-1.417 3.288-1.063-2.12-1.35-6.847-2.885-8.791 1.771-6.218 1.418 2.787-1.366 0-3.138-2.001 1.873-6.933 1.063-10.578 14.274-2.915 10.568-15.508 15.404-21.44 16.5 8.528-3.12 23.027-11.722 12.793-21.157-9.577-4.808-14.008 4.05-8.648 4.353 5.36.304 2.208-4.15 0-2.733 3.288-4.353 10.22.05 8.648 4.403-3.774-2.267-6.147-.1-6.861 1.266 1.62.152 4.488.982 3.001 3.087-3.83-1.376-4.931.17-5.002 1.114 2 .118 5.288.972 2.43 3.442-2.86 2.47-9.863 5.18-13.008 6.226 3.36-2.177 5.503-6.834 0-5.214-2.595.944.454 3.252 1.784 1.616-4.992 6.476-25.531 10.801-29.371-6.07-1.644-8.706 15.437-8.048 18.725-4.707 2.957 3.005 1.644 7.49-3.86 6.124 6.147-3.745-4.502-6.124-4.502-.759 0 4.758 10.72 6.681 13.222-.658.119-3.762-1.39-10.5-13.222-9.87C4.36 15.818 0 20.98 0 25.182 0 29.252 3.288 39 17.653 39z" fill="#D6D020"/></svg>