<svg width="393" height="36" fill="none" xmlns="http://www.w3.org/2000/svg"><path d="M91.714 17.969c1.927-1.367 5.582 5.144 0 7.074-5.583 1.366-10.368-12.862 0-13.666 5.317-.412 12.096 8.119 2.326 18.81-3.656 3.832-16.908 8.554-40.674-3.215-18.237-7.46-24.214-3.108-24.923 0-.643 2.063-1.09 5.852 2.26 4.502 2.99.884-2.792 9.726-5.915 0-3.124-9.727 9.171-18.168 29.242-7.476C37.016 13.467 26.117 8.16 26.25 14.994c.465 5.306 4.918-.16 1.063-.321 0-1.85 3.057-2.09 2.659 1.688-.362 3.429-5.184 4.1-5.184-1.367 0-4.373 4.386-5.331 6.712-4.823 1.595.348 5.875 1.8 10.235 4.823 4.36 3.023 10.59 6.726 13.16 8.2C47.583 17.54 32.031 7.173 28.442 6.232 20.468 4.142 8.039.927 3.587 14.994-.866 29.062 19.803 38.71 20.467 22.47c0-13.344-13.956-5.225-8.573 0 1.75 1.206 4.865 2.251 3.323-3.215 5.051-1.206 5.25 6.994 0 8.52-2.769.188-8.161-1.253-7.576-8.52.73-9.084 12.295-13.184 16.15 0C27.645 32.438 6.046 45.702.33 22.47-2.993-1.164 19.67-2.153 28.443 1.73c8.135 3.602 26.473 17.043 34.626 23.313C58.904 18.96 52.435 6.12 59.88 3.419c4.626-.515 5.051 4.18 2.791 5.305-.797-2.492-5.662-3.65-.398 9.727.638 2.508 3.744 5.118 5.915 6.913-3.301-3.189-6.78-13.264-2.991-15.113 5.05-2.09 5.649 7.235 2.459 7.235-1.967-.321-1.529-2.385-1.064-3.376 1.463 2.572 2.659-.723 0-2.01-.797-.268-2.272-.032-1.794 3.055.598 3.859 1.396 6.833 4.785 9.888 3.39 3.054 12.362 9.244 22.996 1.929 5.05-3.939 4.13-10.37-.864-11.576-3.669 1.35-2.415 4.046-1.33 5.225.887.376 2.393.37 1.33-2.652z" fill="#B90000"/><path d="M53.366 6.152c.465 2.733 1.834 8.907 3.589 11.736-6.753-6.11-8.795-7.208-8.973-6.994-.022-.428.32-1.221 1.861-.964-1.063-1.608-1.107-3.457-.997-4.18.776.053 2.5.562 3.19 2.17.266-1.736.997-1.902 1.33-1.768zM104.693 18.031c-1.947 1.367-5.639-5.144 0-7.074 5.639-1.366 10.473 12.862 0 13.666-5.37.412-12.218-8.119-2.349-18.81 3.692-3.832 17.078-8.554 41.085 3.215 18.421 7.46 24.458 3.108 25.174 0 .649-2.063 1.101-5.852-2.282-4.502-3.021-.884 2.819-9.727 5.974 0 3.156 9.727-9.264 18.168-29.538 7.476 17.186 10.531 28.196 15.837 28.061 9.004-.469-5.306-4.967.16-1.074.321 0 1.85-3.088 2.09-2.685-1.688.366-3.429 5.236-4.1 5.236 1.367 0 4.373-4.43 5.331-6.78 4.823-1.611-.348-5.934-1.8-10.338-4.823-4.404-3.023-10.697-6.726-13.292-8.2 7.384 5.654 23.093 16.021 26.718 16.962 8.056 2.09 20.61 5.306 25.108-8.762 4.497-14.068-16.381-23.715-17.052-7.476 0 13.344 14.098 5.225 8.66 0-1.768-1.206-4.914-2.251-3.357 3.215-5.102 1.206-5.303-6.993 0-8.52 2.798-.188 8.244 1.253 7.654 8.52-.739 9.084-12.42 13.184-16.314 0C169.409 3.562 191.227-9.702 197 13.53c3.357 23.634-19.535 24.623-28.397 20.74-8.217-3.602-26.741-17.043-34.976-23.313 4.207 6.083 10.741 18.924 3.223 21.624-4.673.515-5.102-4.18-2.82-5.305.806 2.492 5.72 3.65.403-9.727-.645-2.508-3.782-5.118-5.975-6.913 3.334 3.189 6.848 13.264 3.021 15.113-5.102 2.09-5.706-7.235-2.484-7.235 1.987.321 1.544 2.384 1.074 3.376-1.477-2.572-2.685.723 0 2.01.806.268 2.296.032 1.813-3.055-.604-3.859-1.41-6.833-4.834-9.888-3.423-3.054-12.486-9.244-23.227-1.929-5.102 3.939-4.172 10.37.872 11.576 3.706-1.35 2.439-4.046 1.343-5.225-.895-.375-2.417-.37-1.343 2.652z" fill="#B90000"/><path d="M143.429 29.848c-.47-2.733-1.853-8.907-3.626-11.736 6.821 6.11 8.884 7.208 9.063 6.994.023.428-.322 1.221-1.879.964 1.074 1.608 1.118 3.457 1.007 4.18-.784-.053-2.525-.563-3.223-2.17-.268 1.736-1.007 1.902-1.342 1.768zM288.307 18.031c1.947 1.367 5.639-5.144 0-7.074-5.639-1.366-10.473 12.862 0 13.666 5.37.412 12.218-8.119 2.349-18.81-3.692-3.832-17.078-8.554-41.085 3.215-18.421 7.46-24.458 3.108-25.174 0-.649-2.063-1.101-5.852 2.282-4.502 3.021-.884-2.819-9.727-5.974 0-3.156 9.727 9.264 18.168 29.538 7.476-17.186 10.531-28.196 15.837-28.061 9.004.469-5.306 4.967.16 1.074.321 0 1.85 3.088 2.09 2.685-1.688-.366-3.429-5.236-4.1-5.236 1.367 0 4.373 4.43 5.331 6.78 4.823 1.611-.348 5.934-1.8 10.338-4.823 4.404-3.023 10.697-6.726 13.292-8.2-7.384 5.654-23.093 16.021-26.718 16.962-8.056 2.09-20.61 5.306-25.108-8.762-4.497-14.068 16.381-23.715 17.052-7.476 0 13.344-14.098 5.225-8.66 0 1.768-1.206 4.914-2.251 3.357 3.215 5.102 1.206 5.303-6.993 0-8.52-2.798-.188-8.244 1.253-7.654 8.52.739 9.084 12.42 13.184 16.314 0C223.591 3.562 201.773-9.702 196 13.53c-3.357 23.634 19.535 24.623 28.397 20.74 8.217-3.602 26.741-17.043 34.976-23.313-4.207 6.083-10.741 18.924-3.223 21.624 4.673.515 5.102-4.18 2.82-5.305-.806 2.492-5.72 3.65-.403-9.727.645-2.508 3.782-5.118 5.975-6.913-3.334 3.189-6.848 13.264-3.021 15.113 5.102 2.09 5.706-7.235 2.484-7.235-1.987.321-1.544 2.384-1.074 3.376 1.477-2.572 2.685.723 0 2.01-.806.268-2.296.032-1.813-3.055.604-3.859 1.41-6.833 4.834-9.888 3.423-3.054 12.486-9.244 23.227-1.929 5.102 3.939 4.172 10.37-.872 11.576-3.706-1.35-2.439-4.046-1.343-5.225.895-.375 2.417-.37 1.343 2.652z" fill="#B90000"/><path d="M249.571 29.848c.47-2.733 1.853-8.907 3.626-11.736-6.821 6.11-8.884 7.208-9.063 6.994-.023.428.322 1.221 1.879.964-1.074 1.608-1.118 3.457-1.007 4.18.784-.053 2.525-.563 3.223-2.17.268 1.736 1.007 1.902 1.342 1.768zM301.286 17.969c-1.927-1.367-5.582 5.144 0 7.074 5.583 1.366 10.368-12.862 0-13.666-5.317-.412-12.096 8.119-2.326 18.81 3.656 3.832 16.908 8.554 40.674-3.215 18.237-7.46 24.214-3.108 24.923 0 .643 2.063 1.09 5.852-2.26 4.502-2.99.884 2.792 9.726 5.915 0 3.124-9.727-9.171-18.168-29.242-7.476 17.014-10.531 27.913-15.837 27.78-9.004-.465 5.306-4.918-.16-1.063-.321 0-1.85-3.057-2.09-2.659 1.688.362 3.429 5.184 4.1 5.184-1.367 0-4.373-4.386-5.331-6.712-4.823-1.595.348-5.875 1.8-10.235 4.823-4.36 3.023-10.59 6.726-13.159 8.2 7.31-5.654 22.862-16.021 26.451-16.962 7.975-2.09 20.404-5.305 24.856 8.762 4.453 14.068-16.216 23.715-16.881 7.476 0-13.344 13.957-5.225 8.574 0-1.75 1.206-4.865 2.251-3.323-3.215-5.051-1.206-5.251 6.994 0 8.52 2.769.188 8.161-1.253 7.576-8.52-.731-9.084-12.295-13.184-16.15 0-3.854 13.183 17.745 26.447 23.461 3.215 3.323-23.634-19.34-24.623-28.113-20.74-8.135 3.602-26.474 17.043-34.626 23.313 4.165-6.083 10.634-18.923 3.19-21.624-4.626-.515-5.051 4.18-2.791 5.305.797-2.492 5.662-3.65.398 9.727-.638 2.508-3.743 5.118-5.915 6.913 3.301-3.189 6.779-13.264 2.991-15.113-5.051-2.09-5.649 7.235-2.459 7.235 1.967-.321 1.529-2.385 1.064-3.376-1.463 2.572-2.659-.723 0-2.01.797-.268 2.272-.032 1.794 3.055-.598 3.859-1.396 6.833-4.785 9.888-3.39 3.054-12.362 9.244-22.996 1.929-5.051-3.939-4.129-10.37.864-11.576 3.669 1.35 2.415 4.046 1.33 5.225-.887.376-2.393.37-1.33-2.652z" fill="#B90000"/><path d="M339.634 6.152c-.465 2.733-1.834 8.907-3.589 11.736 6.753-6.11 8.795-7.208 8.973-6.994.022-.428-.319-1.221-1.861-.964 1.063-1.608 1.107-3.457.997-4.18-.776.053-2.499.562-3.191 2.17-.265-1.736-.996-1.902-1.329-1.768z" fill="#B90000"/></svg>