<svg width="107" height="49" fill="none" xmlns="http://www.w3.org/2000/svg"><path d="M92.798 0c-8.222.55-28.693 1.452-38.523 10.538-9.89 9.142-15.276 9.311-15.985 9.523.096 1.058.886 2.856 3.278 1.587-1.886 7.11-10.638 4.02-14.777 1.587 2.99 4.761 11.913 10.182 23.689-6.221C34.553 39.55 29.436 38.978 26.79 33.773c-2.472 0-1.38 3.682 1.093 4.888-3.68 4.317-7.206-.486-8.51-3.428-1.092.952-2.208 3.606 2.07 6.602-7.245 3.111-7.992-9.459-11.672-10.855 1.38 3.402.575 5.396 0 5.967-10.234-6.602 0-21.965 4.025-11.808-1.955-.952-4.025 4.317 0 4.317 7.647-3.174-1.15-17.013-8.28-6.221.135-1.524-.172-4.431-2.472-3.873 1.38 1.727.115 3.555-.69 4.254-2.894 4.888-5.462 16.277 7.417 22.727 16.1 8.062 28.29-4.508 34.039-14.602C49.56 21.648 56.402 13.268 68.994 6.54c-5.566 4.215-9.18 9.882-10.292 12.188-1.86 1.1-5.462 3.543-5.002 4.508.46.965-.614 2.941-1.208 3.809.633.148 2.289-.216 3.852-2.857-1.035 8.443-6.44 3.745-9.487 10.983 2.76-1.397 6.267-1.714 3.623 0-2.645 1.714-3.968 2.92-4.025 5.586-.046 2.133-1.783 1.778-2.645 1.333 1.706 1.693 5.508 3.619 7.072-2.222 5.002-1.777-2.242 1.714 0 3.936 1.61-2.349 5.577-1.333 8.51-17.902 2.346-13.255 12.477-19.32 17.25-20.695C69.78 9.12 58.114 19.908 66.348 31.74c7.705 6.031 11.27-5.078 6.957-5.459-4.312-.38-1.776 5.206 0 3.428-2.645 5.46-8.222-.063-6.957-5.523 3.036 2.844 4.945.127 5.52-1.587-1.303-.19-3.611-1.232-2.415-3.873 3.082 1.727 3.967-.211 4.025-1.396-1.61-.148-4.255-1.219-1.955-4.317s7.934-6.496 10.465-7.808c-2.703 2.73-4.428 8.57 0 6.538 2.087-1.183-.365-4.079-1.436-2.027 4.017-8.122 20.54-13.547 23.63 7.614 1.322 10.919-12.42 10.094-15.065 5.904-2.379-3.77-1.322-9.396 3.105-7.682-4.945 4.698 3.622 7.682 3.622.953 0-5.968-8.624-8.38-10.637.825-.096 4.719 1.118 13.17 10.637 12.38C103.493 29.074 107 22.6 107 17.33 107 12.227 104.355 0 92.798 0z" fill="#6E0000"/></svg>