<svg width="37" height="43" fill="none" xmlns="http://www.w3.org/2000/svg"><path d="M16.305 41.41c18.612 6.164 21.453-12.782 20.547-23.025-.596 20.924-17.962 14.095-19.42 5.69-1.458-.087-5.236 3.765-1.127 8.405C1.988 27.928 7.69 10.068 8.418 9.105c.729-.963 4.308-3.852 5.435.963.901 3.852-1.834 4.99-3.314 5.078-.022 2.188 1.524 6.408 7.887 5.778C26.38 20.136 27.506 0 14.316 0 3.898 0 3.177 14.114 4.139 21.436 3.86 19.638 2.718 16.42 0 16.021.994 39.834 21.011 39.51 26.91 37.033c-4.11 4.377-5.435.613-10.605 4.377z" fill="#B90000"/></svg>