<svg width="23" height="17" fill="none" xmlns="http://www.w3.org/2000/svg"><g clip-path="url(#a)"><path d="M22.52 2.66C22.254 1.613 21.475.788 20.485.508 18.692 0 11.5 0 11.5 0S4.308 0 2.514.508C1.524.788.745 1.613.481 2.66 0 4.558 0 8.517 0 8.517s0 3.96.48 5.857a2.922 2.922 0 002.034 2.117C4.308 17 11.5 17 11.5 17s7.192 0 8.986-.509a2.922 2.922 0 002.033-2.117C23 12.477 23 8.517 23 8.517s0-3.96-.48-5.857zM9.147 12.112v-7.19l6.011 3.595-6.011 3.595z" fill="#FDF0D5"/></g><defs><clipPath id="a"><path fill="#fff" d="M0 0H23V17H0z"/></clipPath></defs></svg>