<svg width="193" height="133" fill="none" xmlns="http://www.w3.org/2000/svg"><path d="M193 66.5c0-17.637-10.167-34.551-28.264-47.022C146.639 7.007 122.093 0 96.5 0 70.907 0 46.361 7.007 28.264 19.478 10.167 31.948 0 48.863 0 66.5h193z" fill="#F4ECD8"/><path d="M50.41 22.371c.826 0 1.493.293 2 .88.506.56.76 1.253.76 2.08 0 .533-.12 1.16-.36 1.88-.24.693-.494 1.267-.76 1.72a.348.348 0 01-.36.04c-.107-.053-.147-.147-.12-.28.16-.48.226-.96.2-1.44a2.83 2.83 0 00-.4-1.32c-.24-.4-.614-.72-1.12-.96-.48-.267-1.094-.4-1.84-.4-1.014 0-1.894.187-2.64.56-.72.347-1.387.973-2 1.88-.614.88-1.187 2.067-1.72 3.56-.534 1.493-1.08 3.36-1.64 5.6-.934 3.573-2.227 6.333-3.88 8.28 1.2.453 2.453.867 3.76 1.24 1.333.347 2.8.52 4.4.52 1.333 0 2.346-.24 3.04-.72.693-.48 1.266-1.173 1.72-2.08.106-.08.2-.08.28 0 .106.053.146.16.12.32-.64 1.44-1.494 2.547-2.56 3.32-1.067.747-2.494 1.12-4.28 1.12-1.574 0-3.014-.227-4.32-.68a79.022 79.022 0 01-3.76-1.52c-1.947 1.467-4.334 2.2-7.16 2.2-1.067 0-1.867-.187-2.4-.56-.534-.373-.8-.84-.8-1.4 0-.347.12-.72.36-1.12.266-.4.626-.773 1.08-1.12a6.54 6.54 0 011.6-.88c.64-.24 1.346-.36 2.12-.36.986 0 1.946.133 2.88.4.96.24 1.933.547 2.92.92.453-.747.893-1.68 1.32-2.8.426-1.12.853-2.493 1.28-4.12.613-2.293 1.346-4.347 2.2-6.16.853-1.84 1.8-3.387 2.84-4.64 1.066-1.28 2.2-2.253 3.4-2.92 1.226-.693 2.506-1.04 3.84-1.04zm-20.84 24.76c.96 0 1.813-.093 2.56-.28a4.839 4.839 0 002.08-1.2c-.987-.427-1.987-.8-3-1.12a10.699 10.699 0 00-3.24-.48c-1.227 0-1.84.413-1.84 1.24 0 .533.293.973.88 1.32.613.347 1.466.52 2.56.52zm30.272-7.2c0 1.52-2.014 2.56-6.04 3.12l-.08.8v.84c0 .693.16 1.227.48 1.6.32.373.827.56 1.52.56.506 0 1.026-.147 1.56-.44.533-.293.96-.667 1.28-1.12.107-.053.187-.027.24.08.053.08.066.173.04.28-.533.693-1.213 1.293-2.04 1.8-.8.48-1.667.72-2.6.72s-1.613-.227-2.04-.68c-.4-.48-.6-1.147-.6-2 0-.827.173-1.68.52-2.56a11.01 11.01 0 011.32-2.48c.56-.747 1.187-1.347 1.88-1.8.72-.48 1.44-.72 2.16-.72.72 0 1.293.213 1.72.64.453.4.68.853.68 1.36zm-3.48-.96c-.614 0-1.147.293-1.6.88-.427.56-.72 1.44-.88 2.64 1.28-.133 2.227-.373 2.84-.72.613-.373.92-.827.92-1.36 0-.4-.12-.733-.36-1a1.137 1.137 0 00-.92-.44zm43.588-15.2c.106.08.12.213.04.4-.08.16-.214.333-.4.52-.16.16-.36.307-.6.44s-.454.2-.64.2c-.64-.053-1.294-.12-1.96-.2-.64-.08-1.28-.173-1.92-.28-.56.16-1.054.4-1.48.72-.4.293-.774.693-1.12 1.2-.32.507-.627 1.147-.92 1.92a36.583 36.583 0 00-.84 2.76c-.187.613-.36 1.213-.52 1.8-.16.587-.347 1.147-.56 1.68h4.12c.133.053.173.12.12.2-.027.053-.147.107-.36.16l-2.04.08c-.667 0-1.334.013-2 .04-1.6 4.4-3.64 7.627-6.12 9.68-2.454 2.053-5.4 3.08-8.84 3.08-1.92 0-3.414-.453-4.48-1.36-1.04-.907-1.56-2.16-1.56-3.76 0-.933.266-1.8.8-2.6.56-.8 1.346-1.427 2.36-1.88.106 0 .186.053.24.16a.2.2 0 010 .24c-.48.373-.84.787-1.08 1.24-.214.427-.32 1.027-.32 1.8 0 .693.12 1.333.36 1.92.24.56.613 1.067 1.12 1.52.506.427 1.16.76 1.96 1s1.76.36 2.88.36c1.28 0 2.4-.16 3.36-.48.986-.32 1.88-.893 2.68-1.72.8-.853 1.546-2.013 2.24-3.48.693-1.467 1.4-3.347 2.12-5.64-1.36.053-2.68.133-3.96.24-1.28.107-2.534.253-3.76.44-.08-.027-.067-.08.04-.16.106-.107.253-.213.44-.32.213-.107.44-.2.68-.28.24-.107.426-.173.56-.2 2-.107 4.053-.187 6.16-.24a81.182 81.182 0 00.8-2.72c.586-2.16 1.333-3.813 2.24-4.96.906-1.173 2.146-2.04 3.72-2.6-1.44-.213-2.827-.4-4.16-.56a26.6 26.6 0 00-3.76-.28c-2 0-3.654.387-4.96 1.16-1.307.747-2.267 2.04-2.88 3.88-.08.08-.16.093-.24.04-.08-.053-.12-.147-.12-.28.586-1.893 1.733-3.413 3.44-4.56 1.733-1.147 3.866-1.72 6.4-1.72.986 0 1.973.053 2.96.16 1.013.107 2.04.24 3.08.4 1.04.133 2.106.28 3.2.44 1.12.16 2.28.293 3.48.4zm1.181 16.16c0 1.52-2.013 2.56-6.04 3.12l-.08.8v.84c0 .693.16 1.227.48 1.6.32.373.826.56 1.52.56.507 0 1.026-.147 1.56-.44.533-.293.96-.667 1.28-1.12.106-.053.187-.027.24.08.053.08.067.173.04.28-.534.693-1.213 1.293-2.04 1.8-.8.48-1.667.72-2.6.72s-1.614-.227-2.04-.68c-.4-.48-.6-1.147-.6-2 0-.827.173-1.68.52-2.56.347-.907.787-1.733 1.32-2.48.56-.747 1.186-1.347 1.88-1.8.72-.48 1.44-.72 2.16-.72.72 0 1.293.213 1.72.64.453.4.68.853.68 1.36zm-3.48-.96c-.614 0-1.147.293-1.6.88-.427.56-.72 1.44-.88 2.64 1.28-.133 2.226-.373 2.84-.72.613-.373.92-.827.92-1.36 0-.4-.12-.733-.36-1a1.137 1.137 0 00-.92-.44zm9.692-1.04c.587 0 1.053.08 1.4.24.373.16.56.36.56.6 0 .293-.08.627-.24 1a6.27 6.27 0 01-.4.92c-.053.053-.12.067-.2.04a.27.27 0 01-.12-.24c.08-.187.12-.453.12-.8 0-.373-.107-.68-.32-.92-.187-.24-.453-.36-.8-.36-.453 0-.827.147-1.12.44-.267.267-.4.653-.4 1.16 0 .427.107.84.32 1.24.24.373.493.76.76 1.16.293.373.56.787.8 1.24.24.427.36.92.36 1.48 0 .96-.387 1.707-1.16 2.24-.773.533-1.787.8-3.04.8-.907 0-1.627-.147-2.16-.44-.507-.293-.76-.613-.76-.96 0-.107.04-.253.12-.44.08-.187.187-.387.32-.6a9.04 9.04 0 01.44-.64c.16-.213.333-.387.52-.52.08-.053.147-.04.2.04.08.08.093.16.04.24-.16.16-.28.333-.36.52-.08.16-.12.387-.12.68 0 .48.16.88.48 1.2.32.293.733.44 1.24.44.693 0 1.227-.187 1.6-.56.4-.4.6-.88.6-1.44 0-.507-.12-.973-.36-1.4a9.835 9.835 0 00-.72-1.28 31.82 31.82 0 01-.76-1.28 3.005 3.005 0 01-.32-1.36c0-.693.293-1.267.88-1.72.587-.48 1.453-.72 2.6-.72zm10.922.2c.134.053.187.133.16.24-.026.08-.146.147-.36.2-.4 0-.866.013-1.4.04-.506.027-1.053.067-1.64.12a34.682 34.682 0 00-1.32 3.84c-.346 1.227-.52 2.227-.52 3 0 .907.347 1.36 1.04 1.36.694 0 1.467-.6 2.32-1.8.08-.053.147-.053.2 0 .08.053.107.147.08.28a7.506 7.506 0 01-1.72 1.96c-.693.533-1.373.8-2.04.8-.693 0-1.213-.16-1.56-.48-.32-.347-.48-.813-.48-1.4 0-.773.187-1.84.56-3.2.374-1.36.854-2.747 1.44-4.16a18.03 18.03 0 00-1.92.32c-.133-.027-.173-.093-.12-.2.08-.107.2-.213.36-.32.187-.133.4-.24.64-.32.24-.107.467-.16.68-.16h.32c.107 0 .214-.013.32-.04.347-.773.707-1.52 1.08-2.24a26 26 0 011.12-1.96c.16-.187.374-.347.64-.48.294-.16.574-.28.84-.36.267-.08.48-.12.64-.12.187-.027.267.013.24.12a30.084 30.084 0 00-1.36 2.32c-.426.853-.84 1.747-1.24 2.68.507-.027 1.014-.04 1.52-.04h1.48zm4.941-1.92c-.08.08-.173.08-.28 0a.95.95 0 01-.2-.32 1.52 1.52 0 01-.08-.48c0-.187.04-.347.12-.48.294-.373.72-.84 1.28-1.4a11.281 11.281 0 011.8-1.48c.054-.027.12 0 .2.08.08.053.107.107.08.16a11.03 11.03 0 00-1.6 1.84 18.163 18.163 0 00-1.32 2.08zm-4.28 4.52c-.08.053-.146.04-.2-.04-.053-.107-.066-.2-.04-.28.987-.8 2.36-1.627 4.12-2.48.214 0 .32.12.32.36-.346.613-.693 1.28-1.04 2-.32.72-.613 1.44-.88 2.16-.24.693-.44 1.373-.6 2.04-.16.64-.24 1.173-.24 1.6 0 .533.187.8.56.8.294 0 .574-.12.84-.36.294-.267.627-.6 1-1 .054-.053.12-.04.2.04.08.053.094.147.04.28-.586.693-1.173 1.253-1.76 1.68-.56.427-1.106.64-1.64.64-.933 0-1.4-.44-1.4-1.32 0-.48.067-1.04.2-1.68.16-.667.36-1.333.6-2 .267-.693.547-1.36.84-2 .32-.667.64-1.24.96-1.72-.293.16-.626.36-1 .6-.346.24-.64.467-.88.68zm12.481.8c-.16.053-.24-.013-.24-.2.186-.56.146-1.053-.12-1.48-.24-.427-.694-.64-1.36-.64-.854 0-1.547.533-2.08 1.6-.507 1.067-.76 2.453-.76 4.16 0 1.253.493 1.88 1.48 1.88.453 0 .946-.16 1.48-.48a6.459 6.459 0 001.52-1.32c.106-.053.2-.04.28.04.08.08.093.173.04.28-.667.853-1.414 1.533-2.24 2.04a4.97 4.97 0 01-2.64.76c-.587 0-1.08-.2-1.48-.6-.4-.427-.6-1.013-.6-1.76 0-.933.186-1.867.56-2.8.4-.96.906-1.813 1.52-2.56.613-.747 1.28-1.347 2-1.8.72-.48 1.426-.72 2.12-.72.613 0 1.093.173 1.44.52.346.347.52.733.52 1.16 0 .16-.054.333-.16.52-.08.187-.2.373-.36.56-.134.187-.294.36-.48.52-.16.16-.307.267-.44.32zm19.54-23.08c.4 0 .72.107.96.32.267.187.44.453.52.8.107.32.12.693.04 1.12-.053.427-.2.853-.44 1.28-.053.053-.12.053-.2 0a.387.387 0 01-.16-.2c.054-.32-.066-.587-.36-.8-.266-.213-.693-.32-1.28-.32-1.093 0-2.2.413-3.32 1.24-1.093.8-2.16 1.867-3.2 3.2-1.04 1.333-2.013 2.867-2.92 4.6a43.731 43.731 0 00-2.36 5.36 43.869 43.869 0 00-1.6 5.48c-.373 1.813-.56 3.467-.56 4.96 0 .8.227 1.2.68 1.2.32 0 .627-.133.92-.4.32-.267.68-.667 1.08-1.2.08-.053.147-.04.2.04.08.053.107.133.08.24a7.932 7.932 0 01-1.88 2c-.72.533-1.373.8-1.96.8-.506 0-.866-.147-1.08-.44-.186-.293-.28-.667-.28-1.12 0-1.253.267-2.813.8-4.68.534-1.893 1.24-3.88 2.12-5.96a65.578 65.578 0 013.12-6.28c1.174-2.08 2.387-3.947 3.64-5.6 1.28-1.68 2.56-3.04 3.84-4.08 1.28-1.04 2.48-1.56 3.6-1.56zm-5.144 19.48c.933 0 1.627.28 2.08.84.453.56.68 1.213.68 1.96 0 1.04-.213 2.013-.64 2.92-.4.88-.907 1.667-1.52 2.36a7.68 7.68 0 01-1.92 1.6c-.693.373-1.32.56-1.88.56-.907 0-1.6-.267-2.08-.8-.453-.56-.68-1.267-.68-2.12 0-.773.16-1.587.48-2.44a10.76 10.76 0 011.32-2.36c.56-.72 1.2-1.32 1.92-1.8s1.467-.72 2.24-.72zm-2.2 9c.827 0 1.52-.427 2.08-1.28.587-.88.88-2.08.88-3.6 0-.8-.16-1.467-.48-2-.32-.533-.787-.8-1.4-.8-.853 0-1.547.413-2.08 1.24-.533.827-.8 2.04-.8 3.64 0 .933.16 1.64.48 2.12.347.453.787.68 1.32.68zm7.873-1.44c.613.213 1.24.4 1.88.56.666.133 1.32.2 1.96.2.666 0 1.186-.16 1.56-.48.4-.32.706-.76.92-1.32.08-.08.16-.093.24-.04.106.053.146.133.12.24-.88 2.347-2.174 3.52-3.88 3.52-.56 0-1.134-.067-1.72-.2a15.593 15.593 0 01-1.72-.52c-.347-.107-.654-.107-.92 0-.267.08-.614.32-1.04.72-.134 0-.227-.067-.28-.2a.429.429 0 01-.04-.4c.586-.587 1.213-1.2 1.88-1.84.666-.667 1.333-1.32 2-1.96l1.96-1.88c.64-.613 1.226-1.173 1.76-1.68a19.168 19.168 0 00-2.08-.32 13.699 13.699 0 00-1.88-.16c-.774 0-1.307.427-1.6 1.28-.054.08-.134.093-.24.04-.107-.053-.16-.12-.16-.2.346-.96.746-1.68 1.2-2.16.453-.507 1.08-.76 1.88-.76.613 0 1.266.067 1.96.2.72.133 1.266.24 1.64.32.293.08.546.08.76 0 .24-.08.466-.213.68-.4.08-.08.2-.12.36-.12.32 0 .453.12.4.36a1120.98 1120.98 0 00-4.08 3.8c-1.227 1.147-2.4 2.28-3.52 3.4zm16.608-5.56c0 1.52-2.013 2.56-6.04 3.12l-.08.8v.84c0 .693.16 1.227.48 1.6.32.373.827.56 1.52.56.507 0 1.027-.147 1.56-.44.533-.293.96-.667 1.28-1.12.107-.053.187-.027.24.08.053.08.067.173.04.28-.533.693-1.213 1.293-2.04 1.8-.8.48-1.667.72-2.6.72s-1.613-.227-2.04-.68c-.4-.48-.6-1.147-.6-2 0-.827.173-1.68.52-2.56.347-.907.787-1.733 1.32-2.48.56-.747 1.187-1.347 1.88-1.8.72-.48 1.44-.72 2.16-.72.72 0 1.293.213 1.72.64.453.4.68.853.68 1.36zm-3.48-.96c-.613 0-1.147.293-1.6.88-.427.56-.72 1.44-.88 2.64 1.28-.133 2.227-.373 2.84-.72.613-.373.92-.827.92-1.36 0-.4-.12-.733-.36-1a1.137 1.137 0 00-.92-.44z" fill="url(#a)"/><path d="M23.37 52.171h144.714v.8H23.37v-.8z" fill="url(#b)"/><path d="M66.924 68.661c2.192.182 7.65.479 10.27 3.475 2.637 3.014 4.073 3.07 4.262 3.14-.026.348-.236.94-.874.522.503 2.344 2.836 1.326 3.94.523-.797 1.57-3.177 3.358-6.316-2.05 4.246 7.43 5.61 7.24 6.316 5.525.659 0 .368 1.214-.291 1.611.98 1.424 1.92-.16 2.268-1.13.291.314.589 1.189-.552 2.177 1.932 1.025 2.131-3.119 3.112-3.58-.368 1.123-.153 1.78 0 1.968 2.729-2.176 0-7.241-1.073-3.893.521-.314 1.073 1.424 0 1.424-2.039-1.047.307-5.61 2.208-2.052-.036-.502.046-1.46.659-1.276-.368.57-.03 1.172.184 1.402.771 1.612 1.456 5.366-1.978 7.493-4.292 2.658-7.542-1.486-9.075-4.814-1.533-3.328-3.357-6.09-6.714-8.309 1.484 1.39 2.448 3.258 2.744 4.019.496.362 1.456 1.167 1.334 1.486-.123.318.163.97.321 1.255-.168.05-.61-.07-1.027-.942.276 2.784 1.717 1.235 2.53 3.621-.736-.46-1.671-.565-.966 0 .705.565 1.058.963 1.073 1.842.012.703.475.586.705.44-.455.558-1.468 1.192-1.885-.733-1.334-.586.597.565 0 1.298-.43-.775-1.487-.44-2.27-5.902-.624-4.37-3.326-6.37-4.598-6.823 1.83 1.29 4.94 4.847 2.744 8.748-2.054 1.988-3.004-1.674-1.855-1.8 1.15-.125.474 1.716 0 1.13.705 1.8 2.192-.02 1.855-1.82-.81.937-1.318.041-1.472-.524.348-.063.963-.406.644-1.276-.821.569-1.058-.07-1.073-.46.43-.05 1.135-.403.521-1.424-.613-1.021-2.115-2.142-2.79-2.574.72.9 1.18 2.825 0 2.155-.556-.39.098-1.344.383-.668-1.07-2.678-5.476-4.466-6.3 2.51-.352 3.6 3.311 3.328 4.017 1.947.634-1.243.352-3.098-.828-2.533 1.318 1.549-.966 2.532-.966.314 0-1.967 2.3-2.763 2.836.272.025 1.556-.298 4.342-2.836 4.081-2.039-.209-2.974-2.344-2.974-4.08 0-1.684.705-5.715 3.787-5.715zM100.317 16.126c2.192-.181 7.65-.478 10.27-3.474 2.637-3.014 4.073-3.07 4.262-3.14-.026-.348-.236-.941-.874-.523.503-2.344 2.836-1.325 3.94-.523-.797-1.57-3.176-3.357-6.316 2.051 4.246-7.43 5.611-7.241 6.316-5.525.659 0 .368-1.214-.291-1.612.981-1.423 1.921.16 2.268 1.13.292-.313.589-1.188-.551-2.176 1.931-1.026 2.13 3.118 3.111 3.579-.367-1.122-.153-1.78 0-1.968 2.729 2.177 0 7.242-1.073 3.893.522.314 1.073-1.423 0-1.423-2.038 1.047.307 5.61 2.208 2.051-.036.502.046 1.461.659 1.277-.368-.57-.031-1.172.184-1.402.772-1.612 1.456-5.367-1.978-7.493-4.292-2.658-7.542 1.486-9.075 4.814-1.533 3.327-3.357 6.09-6.714 8.308 1.484-1.39 2.448-3.258 2.744-4.018.496-.363 1.456-1.168 1.334-1.486-.123-.318.163-.97.322-1.256-.169-.048-.61.072-1.027.942.275-2.783 1.716-1.235 2.529-3.62-.736.46-1.671.565-.966 0 .705-.566 1.058-.963 1.073-1.842.012-.704.475-.586.705-.44-.454-.558-1.468-1.193-1.885.733-1.334.586.598-.565 0-1.298-.429.774-1.487.44-2.269 5.902-.625 4.37-3.326 6.37-4.599 6.823 1.83-1.29 4.939-4.847 2.744-8.748-2.054-1.989-3.004 1.674-1.855 1.8 1.15.125.474-1.717 0-1.13.706-1.8 2.192.02 1.855 1.82-.809-.937-1.318-.042-1.471.523.347.063.962.406.643 1.277-.821-.57-1.057.07-1.073.46.43.05 1.135.402.522 1.424-.614 1.021-2.116 2.141-2.79 2.574.72-.9 1.18-2.825 0-2.156-.557.39.097 1.345.382.669-1.071 2.677-5.476 4.466-6.3-2.51-.352-3.6 3.312-3.328 4.017-1.947.634 1.243.352 3.098-.828 2.533 1.318-1.55-.966-2.533-.966-.314 0 1.967 2.3 2.762 2.836-.272.026-1.556-.298-4.342-2.836-4.082-2.039.21-2.974 2.344-2.974 4.082 0 1.682.705 5.713 3.787 5.713zM92.744 16.126c-2.192-.181-7.65-.478-10.27-3.474-2.638-3.014-4.073-3.07-4.263-3.14.026-.348.237-.941.874-.523-.502-2.344-2.836-1.325-3.94-.523.798-1.57 3.177-3.357 6.316 2.051-4.246-7.43-5.61-7.241-6.315-5.525-.66 0-.368-1.214.29-1.612-.98-1.423-1.92.16-2.268 1.13-.291-.313-.589-1.188.552-2.176-1.931-1.026-2.13 3.118-3.112 3.579.368-1.122.153-1.78 0-1.968-2.729 2.177 0 7.242 1.073 3.893-.521.314-1.073-1.423 0-1.423 2.039 1.047-.306 5.61-2.207 2.051.035.502-.046 1.461-.66 1.277.369-.57.031-1.172-.183-1.402-.772-1.612-1.457-5.367 1.977-7.493C74.9-1.81 78.15 2.334 79.683 5.662c1.533 3.327 3.357 6.09 6.714 8.308-1.483-1.39-2.447-3.258-2.744-4.018-.495-.363-1.456-1.168-1.333-1.486.123-.318-.164-.97-.322-1.256.168-.048.61.072 1.027.942-.276-2.783-1.717-1.235-2.53-3.62.736.46 1.671.565.966 0-.705-.566-1.057-.963-1.073-1.842-.012-.704-.475-.586-.705-.44.455-.558 1.469-1.193 1.886.733 1.333.586-.598-.565 0-1.298.429.774 1.487.44 2.269 5.902.625 4.37 3.326 6.37 4.598 6.823-1.829-1.29-4.939-4.847-2.744-8.748 2.055-1.989 3.005 1.674 1.855 1.8-1.15.125-.473-1.717 0-1.13-.705-1.8-2.192.02-1.855 1.82.81-.937 1.319-.042 1.472.523-.347.063-.963.406-.644 1.277.822-.57 1.058.07 1.073.46-.429.05-1.134.402-.521 1.424.613 1.021 2.115 2.141 2.79 2.574-.72-.9-1.18-2.825 0-2.156.556.39-.097 1.345-.383.669 1.071 2.677 5.477 4.466 6.3-2.51.353-3.6-3.311-3.328-4.016-1.947-.635 1.243-.353 3.098.828 2.533-1.319-1.55.965-2.533.965-.314 0 1.967-2.3 2.762-2.836-.272-.025-1.556.298-4.342 2.836-4.082 2.04.21 2.974 2.344 2.974 4.082 0 1.682-.705 5.713-3.786 5.713zM124.982 68.661c-2.192.182-7.65.479-10.271 3.475-2.637 3.014-4.073 3.07-4.262 3.14.026.348.236.94.874.522-.503 2.344-2.836 1.326-3.94.523.798 1.57 3.177 3.358 6.316-2.05-4.246 7.43-5.61 7.24-6.316 5.525-.659 0-.367 1.214.292 1.611-.981 1.424-1.922-.16-2.269-1.13-.291.314-.589 1.189.552 2.177-1.932 1.025-2.131-3.119-3.112-3.58.368 1.123.153 1.78 0 1.968-2.729-2.176 0-7.241 1.073-3.893-.521-.314-1.073 1.424 0 1.424 2.039-1.047-.307-5.61-2.207-2.052.035-.502-.046-1.46-.66-1.276.368.57.031 1.172-.184 1.402-.771 1.612-1.456 5.366 1.978 7.493 4.292 2.658 7.542-1.486 9.075-4.814 1.533-3.328 3.357-6.09 6.714-8.309-1.484 1.39-2.447 3.258-2.744 4.019-.495.362-1.456 1.167-1.333 1.486.122.318-.164.97-.322 1.255.168.05.61-.07 1.027-.942-.276 2.784-1.717 1.235-2.53 3.621.736-.46 1.671-.565.966 0-.705.565-1.058.963-1.073 1.842-.012.703-.475.586-.705.44.455.558 1.469 1.192 1.885-.733 1.334-.586-.597.565 0 1.298.43-.775 1.487-.44 2.269-5.902.626-4.37 3.327-6.37 4.599-6.823-1.829 1.29-4.939 4.847-2.744 8.748 2.054 1.988 3.005-1.674 1.855-1.8-1.15-.125-.474 1.716 0 1.13-.705 1.8-2.192-.02-1.855-1.82.81.937 1.318.041 1.472-.524-.348-.063-.963-.406-.644-1.276.822.569 1.058-.07 1.073-.46-.429-.05-1.134-.403-.521-1.424.613-1.021 2.115-2.142 2.79-2.574-.721.9-1.181 2.825 0 2.155.556-.39-.098-1.344-.383-.668l-.016.04.016-.04c1.071-2.678 5.476-4.466 6.3 2.51.352 3.6-3.311 3.328-4.016 1.947-.635-1.243-.353-3.098.827-2.533-1.318 1.549.966 2.532.966.314 0-1.967-2.299-2.763-2.836.272-.025 1.556.298 4.342 2.836 4.081 2.039-.209 2.974-2.344 2.974-4.08 0-1.684-.705-5.715-3.786-5.715z" fill="#B90000"/><path d="M32.37 73.304c-.646-.517-1.872 1.949 0 2.68 1.873.517 3.479-4.871 0-5.176-1.783-.156-4.057 3.075-.78 7.123 1.227 1.451 5.672 3.24 13.645-1.217 6.118-2.825 8.123-1.177 8.36 0 .216.781.366 2.216-.757 1.704-1.004.335.936 3.684 1.984 0 1.048-3.683-3.077-6.88-9.81-2.83 5.708-3.988 9.364-5.997 9.32-3.41-.157 2.01-1.65-.06-.357-.122 0-.7-1.026-.791-.892.64.121 1.298 1.739 1.552 1.739-.518 0-1.656-1.472-2.019-2.252-1.826-.535.132-1.97.681-3.433 1.826-1.463 1.145-3.553 2.547-4.415 3.105 2.453-2.141 7.67-6.067 8.874-6.423 2.675-.791 6.844-2.01 8.338 3.318 1.494 5.327-5.44 8.98-5.663 2.831 0-5.053 4.682-1.979 2.876 0-.587.457-1.632.852-1.115-1.218-1.694-.456-1.76 2.649 0 3.227.93.071 2.738-.475 2.542-3.227-.245-3.44-4.124-4.992-5.418 0-1.293 4.993 5.953 10.016 7.87 1.218 1.115-8.95-6.487-9.324-9.43-7.854-2.73 1.364-8.881 6.454-11.616 8.828 1.397-2.303 3.567-7.166 1.07-8.188-1.552-.195-1.694 1.582-.936 2.009.267-.944 1.9-1.382.133 3.683-.214.95-1.255 1.938-1.984 2.618 1.108-1.208 2.274-5.023 1.003-5.723-1.694-.791-1.895 2.74-.825 2.74.66-.122.513-.903.357-1.279-.49.974-.892-.274 0-.76.268-.102.763-.013.602 1.156-.2 1.461-.468 2.587-1.605 3.744s-4.147 3.5-7.714.73c-1.695-1.49-1.386-3.926.29-4.383 1.23.512.81 1.532.446 1.979-.298.142-.803.14-.446-1.005z" fill="#B90000"/><path d="M45.235 68.83c-.156 1.035-.615 3.372-1.204 4.444 2.265-2.314 2.95-2.73 3.01-2.648.007-.163-.107-.463-.624-.366a2.724 2.724 0 00.334-1.583c-.26.02-.838.213-1.07.822-.09-.657-.334-.72-.446-.67zM159.535 73.304c.646-.517 1.872 1.949 0 2.68-1.873.517-3.478-4.871 0-5.176 1.783-.156 4.057 3.075.78 7.123-1.226 1.451-5.672 3.24-13.645-1.217-6.117-2.825-8.123-1.177-8.36 0-.216.781-.366 2.216.758 1.704 1.003.335-.937 3.684-1.985 0-1.047-3.683 3.077-6.88 9.81-2.83-5.707-3.988-9.364-5.997-9.319-3.41.156 2.01 1.65-.06.357-.122 0-.7 1.025-.791.891.64-.121 1.298-1.739 1.552-1.739-.518 0-1.656 1.472-2.019 2.252-1.826.535.132 1.971.681 3.434 1.826 1.462 1.145 3.552 2.547 4.414 3.105-2.452-2.141-7.669-6.067-8.873-6.423-2.676-.791-6.845-2.01-8.339 3.318-1.494 5.327 5.44 8.98 5.663 2.831 0-5.053-4.682-1.979-2.876 0 .587.457 1.632.852 1.115-1.218 1.694-.456 1.761 2.649 0 3.227-.929.071-2.738-.475-2.542-3.227.246-3.44 4.125-4.992 5.418 0 1.293 4.993-5.953 10.016-7.87 1.218-1.115-8.95 6.488-9.324 9.431-7.854 2.729 1.364 8.881 6.454 11.615 8.828-1.397-2.303-3.567-7.166-1.07-8.188 1.552-.195 1.695 1.582.937 2.009-.268-.944-1.9-1.382-.134 3.683.214.95 1.256 1.938 1.984 2.618-1.107-1.208-2.274-5.023-1.003-5.723 1.694-.791 1.895 2.74.825 2.74-.66-.122-.513-.903-.357-1.279.491.974.892-.274 0-.76-.267-.102-.762-.013-.602 1.156.201 1.461.468 2.587 1.605 3.744s4.147 3.5 7.714.73c1.695-1.49 1.386-3.926-.289-4.383-1.231.512-.81 1.532-.446 1.979.297.142.802.14.446-1.005z" fill="#B90000"/><path d="M146.67 68.83c.156 1.035.616 3.372 1.204 4.444-2.265-2.314-2.95-2.73-3.01-2.648-.007-.163.107-.463.625-.366a2.725 2.725 0 01-.335-1.583c.26.02.839.213 1.07.822.09-.657.335-.72.446-.67zM169.343 70.206c-4.161-1.31-4.796 2.718-4.594 4.895.133-4.448 4.016-2.996 4.342-1.21.326.02 1.171-.8.252-1.786 3.201.968 1.926 4.765 1.763 4.97-.163.204-.963.818-1.215-.205-.201-.82.41-1.061.741-1.08.005-.465-.341-1.362-1.763-1.228-1.779.167-2.03 4.448.918 4.448 2.33 0 2.491-3 2.276-4.557l-.008-.059.008.059c.062.382.318 1.066.925 1.151-.222-5.063-4.697-4.994-6.016-4.467.919-.93 1.215-.13 2.371-.93zM22.562 70.165c4.161-1.31 4.797 2.717 4.594 4.895-.133-4.448-4.016-2.997-4.342-1.21-.326.019-1.17-.8-.252-1.787-3.2.968-1.926 4.765-1.763 4.97.163.205.963.82 1.215-.205.201-.819-.41-1.06-.741-1.08-.005-.465.34-1.362 1.763-1.228 1.779.168 2.03 4.449-.918 4.449-2.33 0-2.491-3-2.276-4.558-.062.383-.317 1.067-.925 1.152.222-5.063 4.697-4.994 6.016-4.468-.918-.93-1.215-.13-2.37-.93z" fill="#B90000"/><defs><linearGradient id="a" x1="102.951" y1="21.273" x2="102.951" y2="34.224" gradientUnits="userSpaceOnUse"><stop stop-color="#FF9A9A"/><stop offset="1" stop-color="#B90000"/></linearGradient><linearGradient id="b" x1="102.951" y1="21.273" x2="102.951" y2="34.224" gradientUnits="userSpaceOnUse"><stop stop-color="#FF9A9A"/><stop offset="1" stop-color="#B90000"/></linearGradient></defs></svg>